<svg xmlns="http://www.w3.org/2000/svg" width="146" height="70" viewBox="0 0 146 70">
    <g fill="#FFF" fill-rule="evenodd">
        <path d="M69.584 20C65.783 20 64 22.102 64 24.016 64 26.18 65.783 28 69.584 28 73.083 28 75 26.18 75 24.016 75 21.882 73.083 20 69.584 20M58 55.37c0 1.037.727 1.63 1.752 1.63 1.917 0 4.76-1.926 6.248-4.481V52c-2.348 1-8 1.296-8 3.37M91.856 18c-2.194 0-4.568.988-4.856 3h10c-.288-2.049-2.842-3-5.144-3M28 17c0-2.26-1.64-3.965-3.586-3.965L17 13v8l7.414-.035C26.36 20.965 28 19.087 28 17"/>
        <path d="M130.87 60.352v-8.648c0-2.849-1.968-4.476-4.581-4.476-3.903 0-5.464 3.154-5.566 5.29l-.068 7.834h-5.26V36.884h5.463l-.17 13.158h.17c.544-3.255 3.055-6.952 8.52-6.952 3.936 0 7.025 2.408 7.025 6.952l.068 10.31h-5.6zm-26.708-4.07c3.122 0 4.344-1.492 4.99-2.848l4.445 1.322c-1.46 3.9-5.464 5.8-9.503 5.8-4.887 0-9.707-2.85-9.707-8.682 0-5.935 5.057-8.784 9.945-8.784 4.208 0 7.908 2.001 9.265 5.969l-4.412 1.323c-.645-1.39-1.867-2.917-5.023-2.917-2.85 0-5.057 1.73-5.057 4.477 0 2.882 2.613 4.34 5.057 4.34zM89.195 64.32l-.78-.373c2.444-4.782 3.53-9.903 3.53-15.092 0-5.188-1.086-10.31-3.53-15.057l.78-.373c2.478 4.85 3.598 10.106 3.598 15.43 0 5.325-1.12 10.615-3.598 15.465zm-2.544-15.973c-4.175-.984-8.315 1.322-8.315 4.103l-.136 7.902h-5.226v-16.72h5.498l-.102 6.75h.102c.814-3.087 2.85-7.292 8.18-7.292v5.257zm-20.329-16.69c-3.835 0-7.704-2.816-7.704-8.784 0-5.969 3.937-8.75 7.84-8.75 3.36 0 6.856 2.137 7.84 6.58h.136l-.204-12.82h5.295l.034 23.502H74.4l.034-6.342h-.136c-.984 4.443-4.65 6.613-7.976 6.613zm4.04 28.695h-4.65v-7.088h-.102c-1.357 3.968-4.446 7.36-8.179 7.36-3.089 0-5.397-2.34-5.397-5.054 0-6.036 9.64-5.833 13.78-7.427v-.237H53.766v-4.273h16.596v16.719zM51.22 14.666h5.26v16.719h-5.294l.034-16.72zm-.95 49.28l-.78.374c-2.478-4.85-3.597-10.14-3.597-15.465 0-5.324 1.12-10.58 3.597-15.43l.78.373c-2.443 4.748-3.53 9.869-3.53 15.057 0 5.19 1.087 10.31 3.53 15.092zm-11.808-3.594l-1.798-23.06h-.136l-7.026 23.06h-5.294l-7.026-23.06h-.135l-1.8 23.06H9.445l1.833-23.332h11.336l4.208 14.955 4.243-14.955h11.37l1.832 23.332h-5.804zm-28.95-52.3l14.933-.033c4.786 0 8.655 3.9 8.655 8.648 0 4.985-3.87 9.02-8.655 9.02h-9.333v5.732h-5.6V8.053zm25.792 6.614h5.498l-.102 6.748h.102c.815-3.086 2.851-7.29 8.18-7.29v5.256c-4.175-.984-8.316 1.322-8.316 4.103l-.135 7.902h-5.227v-16.72zm15.916-2.51h5.26v-.848h-5.26v.848zm39.707 1.9c5.26 0 10.657 3.085 10.012 10.207l-14.39.034c0 1.967 2.511 3.052 4.853 3.052 2.444 0 3.665-1.017 4.242-1.831l5.295 1.662c-1.052 1.865-3.53 4.476-9.537 4.476-7.025 0-10.42-3.764-10.42-8.682 0-6.07 5.058-8.919 9.945-8.919zM0 70h146V0H0v70z"/>
    </g>
</svg>
